<svg xmlns="http://www.w3.org/2000/svg" width="934" height="729" viewBox="0 0 934 729">
<g>
<path d="M 414.00 728.00 C414.00,727.35 425.65,727.00 446.94,727.00 C467.82,727.00 480.11,727.37 480.50,728.00 C480.91,728.66 469.68,729.00 447.56,729.00 C425.85,729.00 414.00,728.65 414.00,728.00 ZM 532.75 728.28 C534.54,728.05 537.46,728.05 539.25,728.28 C541.04,728.50 539.58,728.68 536.00,728.68 C532.42,728.68 530.96,728.50 532.75,728.28 ZM 627.50 728.00 C630.24,726.82 636.18,726.82 638.00,728.00 C639.04,728.67 637.37,728.95 632.50,728.91 C627.67,728.88 626.12,728.59 627.50,728.00 ZM 741.08 728.59 C741.31,728.36 744.27,727.46 747.66,726.59 C752.73,725.27 755.16,725.18 761.50,726.06 C775.58,728.02 774.28,728.87 757.08,728.94 C748.05,728.97 740.85,728.82 741.08,728.59 ZM 677.50 681.01 C646.10,678.61 617.87,671.99 588.06,660.06 C571.33,653.36 540.76,635.42 529.53,625.72 L 525.60 622.31 L 531.48 615.65 C534.71,611.99 538.38,608.33 539.62,607.51 C541.73,606.13 542.21,606.27 546.69,609.70 C574.81,631.17 615.58,648.32 653.00,654.42 C729.31,666.86 803.17,645.81 857.97,596.00 C866.16,588.55 879.27,573.83 886.33,564.15 L 891.16 557.53 L 888.33 555.19 C884.18,551.77 852.35,531.00 851.25,531.00 C850.73,531.00 847.21,534.71 843.41,539.25 C825.20,561.00 805.86,576.49 781.50,588.79 C753.14,603.13 728.49,609.00 696.72,609.00 C644.66,609.00 599.75,591.25 563.00,556.14 C550.78,544.47 553.00,543.92 543.00,561.07 C523.66,594.26 495.91,620.11 462.50,636.06 C443.38,645.19 427.16,650.21 402.50,654.64 C386.80,657.46 345.85,657.20 329.16,654.18 C298.61,648.64 273.93,639.95 252.65,627.23 C241.84,620.77 231.06,612.92 231.02,611.48 C231.01,610.91 234.53,606.95 238.84,602.66 L 246.68 594.87 L 256.35 601.43 C304.03,633.75 375.03,642.69 431.93,623.52 C470.65,610.48 500.23,587.11 521.27,552.91 C553.31,500.84 552.74,435.27 519.81,385.83 C512.26,374.50 493.83,355.74 482.50,347.86 C463.41,334.57 441.35,322.96 412.50,311.01 C397.80,304.93 369.46,292.91 340.00,280.28 C299.55,262.93 283.01,253.26 268.50,238.48 C258.82,228.62 254.76,222.60 249.48,210.32 C240.21,188.74 240.95,161.88 251.43,139.57 C255.81,130.22 259.41,125.11 267.09,117.33 C288.52,95.61 328.24,83.37 365.55,86.98 C422.76,92.52 462.13,121.37 473.90,166.37 C475.04,170.69 476.22,176.54 476.53,179.37 C476.84,182.19 477.32,185.97 477.60,187.77 L 478.10 191.04 L 500.30 190.77 L 522.50 190.50 L 522.80 183.68 C523.16,175.37 520.07,156.52 516.46,145.00 C513.21,134.61 505.94,119.82 498.95,109.34 C491.55,98.25 473.73,80.86 461.50,72.78 C436.83,56.48 411.84,47.42 382.00,43.95 C365.31,42.01 335.49,43.23 320.00,46.48 C281.94,54.48 248.62,72.68 227.12,97.21 C204.78,122.71 192.79,154.20 192.75,187.50 C192.71,225.69 206.82,260.76 232.65,286.68 C255.06,309.17 270.94,318.03 358.97,357.18 C418.06,383.46 436.86,394.09 454.82,411.38 C482.65,438.18 492.30,484.34 477.83,521.38 L 475.92 526.26 L 481.07 535.38 C483.90,540.40 488.64,548.37 491.61,553.11 C494.57,557.84 497.00,562.20 497.00,562.79 C497.00,564.03 485.06,577.00 483.92,577.00 C481.34,577.00 453.00,526.53 453.00,521.94 C453.00,521.01 454.14,517.66 455.54,514.50 C459.57,505.40 461.25,496.57 461.36,484.00 C461.60,455.02 447.52,431.01 419.57,412.77 C410.77,407.03 391.73,397.32 372.77,388.90 C367.67,386.64 359.23,382.86 354.00,380.50 C348.77,378.14 341.80,375.09 338.50,373.72 C308.86,361.42 275.29,345.37 257.24,334.88 C229.83,318.95 207.03,297.66 193.76,275.60 C177.64,248.82 170.36,224.33 169.31,193.37 C168.55,170.70 170.41,157.89 177.61,136.46 C194.32,86.68 237.56,46.47 293.57,28.62 C316.41,21.34 332.60,18.90 358.50,18.83 C393.36,18.74 419.78,24.38 449.00,38.15 C459.77,43.23 460.78,43.82 474.50,53.00 C510.96,77.39 535.35,113.40 543.57,154.98 C545.97,167.12 546.14,169.74 545.84,189.41 C545.58,205.59 545.17,211.09 544.13,212.35 C542.89,213.83 538.72,214.00 502.63,214.00 C451.77,213.99 455.68,215.54 454.55,195.00 C453.79,180.98 450.89,169.65 444.88,157.19 C440.63,148.38 438.70,145.68 431.68,138.69 C412.75,119.85 381.28,109.81 346.00,111.35 C320.28,112.47 299.16,119.83 285.06,132.57 C279.87,137.25 272.85,147.90 270.20,155.11 C262.01,177.35 267.53,203.98 283.80,220.75 C297.89,235.28 310.75,242.21 370.50,267.49 C451.39,301.71 463.62,307.55 488.32,323.72 C522.27,345.93 546.06,375.80 558.82,412.19 C569.42,442.43 570.81,479.33 562.65,513.77 L 561.17 520.04 L 570.49 530.36 C603.98,567.45 651.98,587.63 702.00,585.65 C726.70,584.68 747.47,579.63 768.50,569.49 C797.53,555.49 815.70,539.11 839.42,505.55 C841.58,502.50 843.76,500.00 844.27,500.00 C844.77,500.00 852.01,504.47 860.34,509.94 C889.28,528.93 901.55,536.92 911.25,543.12 C916.61,546.54 921.00,549.99 921.00,550.79 C921.00,553.28 909.16,572.02 899.07,585.50 C891.52,595.59 879.05,608.71 867.61,618.60 C833.80,647.84 786.07,670.37 743.00,677.43 C721.47,680.96 695.45,682.38 677.50,681.01 ZM 96.15 625.82 C78.46,622.78 68.29,602.18 76.35,585.72 C83.36,571.39 98.90,565.57 114.00,571.62 C118.84,573.55 127.58,582.82 128.50,586.98 C128.86,588.63 129.56,590.23 130.06,590.54 C130.56,590.85 145.26,591.07 162.72,591.03 L 194.47 590.96 L 215.76 569.48 L 237.06 548.00 L 287.03 548.00 L 337.00 548.00 L 337.00 554.50 L 337.00 561.00 L 331.75 561.16 C328.86,561.24 307.45,561.39 284.16,561.48 L 241.81 561.65 L 220.91 582.83 C200.47,603.54 199.92,604.00 195.76,604.14 C193.42,604.22 178.23,604.39 162.00,604.52 C145.77,604.65 131.75,604.82 130.83,604.88 C129.84,604.95 128.90,606.20 128.51,607.94 C127.55,612.32 121.56,619.59 116.45,622.58 C111.33,625.58 102.74,626.95 96.15,625.82 ZM 108.79 611.01 C119.18,606.29 119.29,589.82 108.97,584.48 C102.48,581.13 92.63,583.86 89.62,589.85 C85.07,598.87 87.60,606.80 96.50,611.43 C100.45,613.48 103.58,613.38 108.79,611.01 ZM 361.48 585.82 C361.18,585.02 361.05,579.89 361.21,574.43 L 361.50 564.50 L 374.00 563.84 C397.93,562.57 419.92,554.53 435.61,541.31 C438.42,538.94 441.00,537.00 441.35,537.00 C442.23,537.00 451.00,554.64 451.00,556.42 C451.00,558.43 441.18,565.81 431.01,571.43 C415.07,580.25 396.17,585.29 374.27,586.57 C364.01,587.17 361.95,587.05 361.48,585.82 ZM 58.22 525.88 C39.39,522.43 29.91,502.66 38.46,484.71 C44.89,471.23 62.31,465.51 76.22,472.32 C82.49,475.39 86.87,480.19 89.95,487.38 L 91.94 492.03 L 200.22 491.88 L 308.50 491.72 L 308.80 498.36 L 309.09 505.00 L 200.12 505.00 L 91.16 505.00 L 90.01 508.47 C89.38,510.37 86.89,514.14 84.46,516.83 C77.67,524.39 68.09,527.69 58.22,525.88 ZM 69.98 511.25 C79.51,506.46 80.83,493.77 72.60,486.08 C68.95,482.67 60.76,482.10 56.24,484.94 C47.48,490.44 46.46,502.59 54.15,509.65 C58.13,513.30 64.60,513.95 69.98,511.25 ZM 192.99 428.01 L 171.74 406.00 L 131.51 406.00 L 91.27 406.00 L 89.63 410.31 C87.48,415.92 80.96,422.64 75.13,425.24 C69.25,427.86 58.20,428.08 52.66,425.69 C46.58,423.06 41.63,418.58 38.47,412.82 C35.90,408.14 35.55,406.54 35.61,399.50 C35.72,387.41 40.51,378.79 50.08,373.50 C54.83,370.87 56.48,370.50 63.50,370.50 C70.50,370.50 72.17,370.87 76.86,373.47 C83.28,377.02 87.47,381.83 89.77,388.25 L 91.47 393.00 L 134.48 392.98 L 177.50 392.96 L 199.00 415.01 L 220.50 437.06 L 266.75 437.03 C303.14,437.01 312.98,437.27 312.92,438.25 C312.88,438.94 312.05,441.75 311.09,444.50 L 309.33 449.50 L 261.78 449.76 L 214.23 450.02 L 192.99 428.01 ZM 70.76 412.01 C84.17,403.83 77.60,382.76 62.14,384.34 C44.05,386.18 45.33,413.99 63.50,413.99 C65.73,413.99 68.94,413.11 70.76,412.01 ZM 837.84 355.25 C832.75,343.47 828.54,334.26 826.97,331.50 C816.75,313.45 811.60,306.72 798.05,293.66 C787.47,283.46 776.30,275.93 760.77,268.53 C750.36,263.57 732.98,257.21 725.25,255.54 C721.47,254.73 721.53,255.22 723.59,241.39 C726.65,220.75 735.14,194.72 745.64,173.75 C748.05,168.94 750.20,165.00 750.42,165.00 C750.64,165.00 756.37,166.61 763.16,168.59 C823.54,186.13 871.03,221.11 900.17,269.50 C909.06,284.26 915.03,297.11 919.91,311.97 C921.06,315.47 922.00,318.44 922.00,318.57 C922.00,319.06 904.97,328.01 875.50,343.01 C859.00,351.41 845.07,358.67 844.55,359.14 C842.20,361.27 839.85,359.91 837.84,355.25 ZM 879.38 316.59 C887.20,312.36 892.61,308.81 892.80,307.79 C893.56,303.83 878.56,277.19 867.12,262.16 C851.37,241.48 823.74,219.78 795.85,206.19 C780.67,198.79 761.28,191.67 757.71,192.19 C755.31,192.54 752.06,200.03 744.88,221.79 C740.84,234.00 740.56,237.00 743.45,237.00 C745.88,237.00 758.86,241.59 767.31,245.44 C800.43,260.54 828.36,286.19 845.04,316.83 C847.93,322.15 850.93,327.52 851.69,328.78 L 853.08 331.05 L 859.68 327.36 C863.31,325.33 872.17,320.48 879.38,316.59 ZM 536.00 333.39 C529.00,324.85 512.82,310.67 501.13,302.82 C491.20,296.17 464.08,282.00 461.26,282.00 C458.95,282.00 459.95,279.37 466.25,268.89 C473.69,256.50 480.28,247.74 488.52,239.25 L 494.59 233.00 L 510.79 233.00 C519.71,233.00 527.00,233.28 527.00,233.62 C527.00,233.96 522.59,238.57 517.19,243.87 C508.13,252.76 493.00,270.50 493.00,272.22 C493.00,272.63 494.91,273.92 497.25,275.09 C503.64,278.30 517.50,288.46 526.50,296.54 L 534.50 303.73 L 540.00 295.64 C547.99,283.88 567.29,264.92 579.67,256.66 C589.69,249.99 607.90,240.47 615.25,238.07 C618.06,237.15 619.00,236.30 619.00,234.67 C619.00,231.50 614.95,218.90 609.49,205.09 C605.91,196.01 604.28,193.00 602.95,193.00 C600.34,193.00 580.89,201.34 570.24,207.04 C565.13,209.77 560.74,212.00 560.48,212.00 C559.79,212.00 559.89,200.62 560.64,191.69 L 561.29 184.08 L 576.39 177.41 C590.97,170.97 604.10,166.00 606.52,166.00 C607.80,166.00 616.75,184.40 622.32,198.50 C628.10,213.10 632.87,231.25 636.44,252.17 L 637.06 255.84 L 631.28 257.52 C604.27,265.35 577.89,283.74 561.37,306.26 C554.77,315.25 543.00,335.41 543.00,337.73 C543.00,340.35 540.36,338.71 536.00,333.39 ZM 649.59 242.38 C647.51,230.26 641.08,207.00 636.47,194.92 C632.52,184.56 622.56,164.67 614.54,151.14 C611.49,145.99 609.00,141.22 609.00,140.54 C609.00,138.46 629.29,129.69 642.37,126.10 C660.05,121.26 675.55,119.69 691.50,121.12 C710.38,122.82 727.37,127.33 743.69,134.97 L 752.11 138.92 L 748.73 144.21 C735.54,164.87 732.50,169.94 728.05,178.81 C719.56,195.69 710.90,224.73 708.42,244.62 C708.06,247.44 707.49,250.21 707.14,250.77 C706.70,251.47 703.47,251.48 697.00,250.80 C687.97,249.85 672.33,250.18 657.89,251.61 L 651.28 252.26 L 649.59 242.38 ZM 695.51 218.25 C698.93,199.24 709.33,172.87 719.36,157.80 C722.75,152.70 723.52,150.85 722.59,150.08 C721.92,149.52 716.67,147.89 710.93,146.47 C698.29,143.33 675.78,142.09 664.00,143.89 C654.81,145.30 635.00,150.93 635.00,152.14 C635.00,152.63 637.94,157.93 641.54,163.92 C650.83,179.39 659.07,200.84 662.00,217.14 C662.62,220.64 663.34,224.51 663.59,225.75 C664.03,227.96 664.29,228.00 678.90,228.00 L 693.76 228.00 L 695.51 218.25 Z" fill="rgba(0,0,0,1)"/>
</g>
</svg>